<svg xmlns="http://www.w3.org/2000/svg" viewBox="0 0 25 25" width="25" height="25">
	<style>
		tspan { white-space:pre }
		.shp0 { fill: #00335A }
	</style>
	<path id="↪ " class="shp0" d="M7.3 6.43L7.3 8.42C7.09 8.42 6.9 8.46 6.73 8.54C6.54 8.62 6.37 8.73 6.22 8.87C6.08 9 5.97 9.17 5.9 9.37C5.82 9.55 5.78 9.75 5.78 9.96C5.78 10.16 5.82 10.35 5.9 10.53C5.99 10.75 6.1 10.92 6.22 11.04C6.37 11.18 6.54 11.29 6.73 11.36C6.9 11.44 7.09 11.48 7.3 11.48L18.07 11.48L15.34 8.75L16.75 7.34L21.35 11.95L21.35 13L16.75 17.61L15.34 16.2L18.07 13.47L7.3 13.47C6.79 13.47 6.35 13.39 5.97 13.21C5.51 13.01 5.13 12.75 4.83 12.44C4.48 12.08 4.22 11.7 4.06 11.29C3.88 10.87 3.8 10.43 3.8 9.96C3.8 9.48 3.88 9.03 4.06 8.61C4.23 8.16 4.49 7.78 4.83 7.46C5.2 7.11 5.57 6.85 5.97 6.69C6.37 6.52 6.82 6.43 7.3 6.43Z" />
</svg>