<?xml version="1.0" standalone="no"?>
<!DOCTYPE svg PUBLIC "-//W3C//DTD SVG 20010904//EN"
 "http://www.w3.org/TR/2001/REC-SVG-20010904/DTD/svg10.dtd">
<svg version="1.0" xmlns="http://www.w3.org/2000/svg"
 width="260.000000pt" height="260.000000pt" viewBox="0 0 260.000000 260.000000"
 preserveAspectRatio="xMidYMid meet">
<metadata>
Created by potrace 1.11, written by Peter Selinger 2001-2013
</metadata>
<g transform="translate(0.000000,260.000000) scale(0.100000,-0.100000)"
fill="#000000" stroke="none">
<path d="M1145 2181 c-194 -32 -378 -131 -509 -272 -73 -79 -110 -134 -157
-233 -114 -243 -113 -514 2 -755 144 -303 424 -493 749 -508 175 -8 305 18
455 93 221 111 388 318 457 569 31 114 31 334 0 450 -25 91 -76 202 -123 272
-48 71 -166 190 -233 235 -76 52 -204 111 -286 132 -74 20 -280 29 -355 17z
m178 -553 c64 -99 136 -233 157 -298 19 -54 21 -81 18 -160 -7 -128 -43 -213
-64 -147 -4 12 -29 55 -56 96 -28 40 -59 93 -70 117 -10 24 -22 44 -26 44 -5
0 -13 -15 -20 -33 -7 -18 -32 -63 -57 -100 -24 -36 -54 -85 -65 -107 -11 -22
-24 -40 -29 -40 -22 0 -46 106 -45 200 1 80 5 106 28 162 38 91 171 318 188
318 3 0 22 -24 41 -52z m-377 -120 c63 -33 114 -66 114 -72 0 -6 -4 -27 -10
-46 -19 -70 -27 -186 -18 -258 7 -64 23 -109 65 -187 6 -11 15 -38 20 -60 6
-22 14 -49 18 -59 14 -34 -114 43 -178 106 -107 106 -146 234 -147 484 0 127
3 154 18 154 3 0 56 -28 118 -62z m802 -104 c4 -240 -26 -349 -126 -457 -49
-52 -154 -127 -180 -127 -10 0 -12 6 -7 18 4 9 11 35 16 57 5 22 23 65 39 95
52 101 63 251 26 390 -9 35 -11 59 -5 65 17 17 214 124 224 121 6 -2 11 -67
13 -162z m-973 -244 c53 -189 174 -313 365 -375 76 -25 78 -27 38 -41 -69 -24
-162 -27 -242 -10 -145 33 -263 139 -378 343 -94 166 -93 151 -6 156 40 2 102
3 138 3 l64 -1 21 -75z m1304 65 c5 -5 -73 -145 -131 -237 -54 -84 -156 -186
-218 -218 -63 -32 -167 -53 -232 -46 -76 8 -149 26 -143 37 3 4 31 15 62 24
187 55 322 192 369 376 9 35 19 68 21 73 5 7 263 -1 272 -9z"/>
</g>
</svg>
