<svg xmlns="http://www.w3.org/2000/svg" viewBox="0 0 17.974 17.673">
  <path fill="#fff" d="M3.74 9.562L1 9.596c2.93 3.99 2.58 5.22 7.752 4.51-1.147-.138-3.877-.568-5.012-4.544zm10.544-.05l2.74.008c-2.891 4.019-2.531 5.244-7.708 4.583 1.145-.148 3.871-.604 4.968-4.59zm-9.96-3.374l2.83 1.472c-.555 1.913-.386 3.586.35 4.469-.078.558-.182 1.301.53 1.734-2.918-.858-4.207-2.94-3.71-7.675zm9.343-.044l-2.815 1.498c.573 1.909.42 3.583-.308 4.472.083.558.194 1.3-.513 1.74 2.91-.886 4.179-2.98 3.636-7.71zM9.022 9.507c.506.927.989 1.189 1.458 2.38C11.618 8.814 10.148 6.961 8.99 5 7.852 6.972 6.4 8.838 7.567 11.902c.457-1.197.938-1.464 1.435-2.395"/>
</svg>
