<?xml version="1.0" encoding="UTF-8"?>
<svg version="1.1" viewBox="0 0 172.8 87.345" xml:space="preserve" xmlns="http://www.w3.org/2000/svg"><path d="m8.0848 66.06c-1.2236 0-2.3275 0.05762-3.3115 0.17134-0.98558 0.10311-1.8347 0.21683-2.5504 0.34268-0.74841 0.1361-1.4901 0.3066-2.2229 0.51098l0.45033-2.5185c0.12433 0.01061 0.31084 0.01971 0.56102 0.03033 0.59573 0.02534 1.1916 0.04605 1.7877 0.06217 0.34116 0 0.66261 0.0061 0.96284 0.01516 0.30174 0 0.56557 0.0061 0.79301 0.01516h9.8891c0.23806-0.0091 0.50795-0.01516 0.80817-0.01516 0.30022-0.0091 0.61712-0.01516 0.94919-0.01516 0.60103-0.01789 1.202-0.03812 1.8028-0.06065 0.24867-0.01213 0.43517-0.02123 0.56102-0.03184l0.45033 2.517c-0.66413-0.185-1.4101-0.35634-2.2395-0.51251-0.84613-0.1418-1.6967-0.25559-2.5504-0.34116-1.0997-0.12024-2.2053-0.17744-3.3115-0.17134v14.849c0 0.87944 0.01061 1.6527 0.03033 2.3154 0.03184 0.65351 0.06368 1.2191 0.09401 1.6952 0.04246 0.47763 0.08794 0.87641 0.14101 1.1979 0.04985 0.27209 0.11208 0.54176 0.1865 0.80817v0.06065h-3.7164v-0.06065c0.07128-0.26619 0.12847-0.53596 0.17134-0.80817 0.05155-0.32145 0.09856-0.72023 0.1395-1.1979 0.04094-0.47611 0.07278-1.0417 0.09401-1.6952 0.01971-0.66261 0.03033-1.4344 0.03033-2.3154zm11.101 11.085c0-0.87944-0.01516-1.6482-0.04549-2.3002-0.0158-0.57087-0.04714-1.1412-0.09401-1.7104-0.02192-0.40177-0.06852-0.8018-0.1395-1.1979-0.04153-0.27246-0.09872-0.5423-0.17134-0.80817v-0.06217h3.5921v0.06065c-0.09484 0.28464-0.16784 0.57611-0.21834 0.87186-0.06117 0.43865-0.10265 0.87983-0.12433 1.3222 0.38362-0.32145 0.7824-0.63684 1.1979-0.94919 0.41394-0.31084 0.8385-0.58528 1.2737-0.82334 0.42182-0.23283 0.86447-0.42573 1.3222-0.57618 0.45488-0.14405 0.9128-0.21683 1.3677-0.21683 0.28051 0 0.52463 0.01516 0.73084 0.04549 0.20773 0.02123 0.39423 0.05762 0.56102 0.10917 0.16527 0.04246 0.31538 0.09401 0.45033 0.15618 0.13495 0.05155 0.26383 0.10311 0.38817 0.15466l-0.76117 2.9704-0.26535-0.06217c-0.10711-0.42982-0.35276-0.81241-0.699-1.0887-0.34268-0.27899-0.80817-0.42001-1.3995-0.42001-0.32145 0-0.65806 0.05762-1.0098 0.17134-0.37348 0.12335-0.73323 0.28493-1.0735 0.48218-0.37866 0.20747-0.74244 0.44104-1.0887 0.699-0.36239 0.25928-0.71417 0.53373-1.0568 0.82485-0.02123 0.30022-0.03032 0.62622-0.03032 0.97951v5.1311c0 0.87944 0.0091 1.6527 0.03032 2.3154 0.02123 0.65351 0.05155 1.2191 0.09401 1.6952 0.04094 0.47763 0.08794 0.87641 0.1395 1.1979 0.05155 0.32145 0.10917 0.59135 0.17134 0.80817v0.06065h-3.5921v-0.06065c0.07272-0.26584 0.12993-0.53569 0.17134-0.80817 0.07098-0.39605 0.11757-0.79609 0.1395-1.1979 0.04094-0.47611 0.07278-1.0417 0.09401-1.6952 0.03033-0.66261 0.04549-1.4344 0.04549-2.3154zm11.195 1.8499c0-1.1706 0.21834-2.2532 0.652-3.2494 0.41847-0.97977 1.0265-1.8671 1.7892-2.611 0.78124-0.74554 1.7-1.3321 2.705-1.727 1.0643-0.41982 2.1994-0.63088 3.3434-0.62167 1.1706 0 2.2699 0.19712 3.2964 0.59135 1.0028 0.36301 1.9226 0.92346 2.705 1.6482 0.77982 0.73313 1.3949 1.6237 1.8044 2.6125 0.44427 1.025 0.66716 2.1759 0.66716 3.451 0 1.0675-0.1865 2.0925-0.55951 3.078-0.36614 0.97381-0.92695 1.8628-1.6482 2.6125-0.75999 0.78038-1.6697 1.3993-2.6747 1.8195-1.0462 0.44427-2.2532 0.66716-3.6224 0.66716-1.1189 0.0074-2.23-0.18726-3.2797-0.57467-0.99703-0.36563-1.9114-0.92589-2.6899-1.6482-0.77853-0.73099-1.3979-1.6147-1.8195-2.5959-0.44578-1.0265-0.66716-2.1774-0.66716-3.4526zm8.8156 7.1371c0.73539 0 1.4101-0.14556 2.0212-0.43517 0.62167-0.29112 1.1554-0.71113 1.6012-1.2585 0.44578-0.55041 0.79301-1.2191 1.0417-2.006 0.24867-0.78846 0.373-1.68 0.373-2.6747 0.0085-1.0474-0.11175-2.0918-0.35784-3.1099-0.23806-0.96435-0.5959-1.7938-1.072-2.4867-0.44653-0.68701-1.0553-1.2536-1.7725-1.6497-0.71568-0.39423-1.5496-0.59135-2.5019-0.59135-1.3964-0.01739-2.7267 0.59324-3.6239 1.6634-0.47261 0.59008-0.82636 1.2662-1.0417 1.9909-0.24867 0.77633-0.373 1.6634-0.373 2.658 0 1.119 0.11827 2.1607 0.35784 3.125 0.2181 0.89496 0.5862 1.7465 1.0887 2.5185 0.47611 0.70507 1.0675 1.2585 1.7725 1.6634 0.71416 0.39423 1.5436 0.59135 2.4867 0.59135zm18.673-11.941-0.21834 0.03033c-0.08603-0.2678-0.20576-0.52358-0.35632-0.76117-0.16501-0.28101-0.37503-0.53303-0.62167-0.74601-0.26964-0.24131-0.58102-0.43142-0.91886-0.56102-0.38873-0.16216-0.80709-0.24118-1.2282-0.23199-0.31993 0-0.62622 0.04549-0.91583 0.1395-0.27424 0.08976-0.52822 0.23246-0.74752 0.42001-0.21264 0.18328-0.38242 0.41104-0.49734 0.66716-0.13048 0.29906-0.19412 0.62299-0.1865 0.94919 0 0.50795 0.15618 0.99619 0.46701 1.4617 0.32145 0.4564 0.72023 0.9128 1.1979 1.3692 0.47611 0.44427 0.98861 0.8946 1.5375 1.3525 0.56102 0.45488 1.0781 0.93251 1.5557 1.4298 0.46289 0.47943 0.86055 1.0178 1.1827 1.6012 0.31993 0.56102 0.48066 1.1675 0.48066 1.8195 0 0.52766-0.09401 1.0462-0.28051 1.5542-0.19017 0.50339-0.48708 0.95963-0.87034 1.3374-0.42518 0.42131-0.93326 0.7497-1.492 0.96435-0.60196 0.23806-1.3222 0.35784-2.1607 0.35784-0.49886 0-0.96435-0.047-1.3995-0.14101-0.4017-0.08602-0.79689-0.20002-1.1827-0.34116-0.33061-0.1349-0.65222-0.29089-0.96283-0.46701-0.25388-0.15859-0.50316-0.32444-0.74752-0.49734l0.15618-2.9537h0.24867c0.10311 0.48672 0.25777 0.93251 0.46701 1.3374 0.20621 0.40333 0.46095 0.75056 0.76117 1.0417 0.31084 0.279 0.66413 0.50189 1.0568 0.66716 0.39423 0.15618 0.82485 0.23351 1.2904 0.23351 0.76724 0 1.3737-0.21228 1.8195-0.63684 0.45488-0.42456 0.68384-0.97951 0.68384-1.6634 0.0035-0.53877-0.15908-1.0655-0.4655-1.5087-0.3245-0.49388-0.71187-0.94344-1.1524-1.3374-0.4655-0.42456-0.96738-0.84911-1.5072-1.2737-0.52766-0.42456-1.0265-0.87641-1.492-1.354-0.45768-0.47409-0.8503-1.0069-1.1675-1.5845-0.30743-0.61249-0.46145-1.2905-0.44882-1.9757 0-0.60044 0.10766-1.1509 0.326-1.6482 0.21618-0.49073 0.53401-0.93002 0.93251-1.2888 0.40485-0.36391 0.88096-0.6429 1.4298-0.84002 0.55041-0.19712 1.1524-0.29567 1.8044-0.29567 0.85973 0 1.5754 0.09249 2.1455 0.279 0.58073 0.1774 1.0205 0.34874 1.3207 0.51402zm9.8876 11.878c0.31235 0 0.61712-0.05762 0.91735-0.17134 0.31235-0.11372 0.60651-0.2699 0.88702-0.46701 0.29272-0.19884 0.56814-0.42202 0.82334-0.66716 0.2699-0.25928 0.51857-0.5307 0.74752-0.80969l0.15466 0.07885-1.0098 2.5019-0.46701 0.23351c-0.17589 0.08339-0.39423 0.16072-0.652 0.23351-0.25019 0.0834-0.54586 0.15163-0.88702 0.20166-0.40076 0.06714-0.8067 0.0986-1.213 0.09401-1.3889 0-2.4715-0.373-3.2494-1.119-0.76724-0.75814-1.1509-1.9332-1.1509-3.5299v-10.371l-2.611 0.09401v-1.3677c0.32145 0.02123 0.70355 0.03639 1.1493 0.04549 0.44578 0.01061 0.93402 0.01516 1.4617 0.01516-0.0076-0.64728-0.02778-1.2943-0.06065-1.9408-0.01597-0.49365-0.04732-0.98668-0.09401-1.4784-0.03536-0.60907-0.12931-1.2133-0.28051-1.8044v-0.06065h3.5921v0.06065c-0.07242 0.23977-0.12964 0.48387-0.17134 0.73084-0.05977 0.35091-0.10629 0.70395-0.1395 1.0584-0.03556 0.492-0.0669 0.98431-0.09401 1.4769-0.02123 0.5595-0.03639 1.213-0.04549 1.959l1.9105-0.03032c0.6338-0.02123 1.2039-0.04246 1.7119-0.06368l1.304-0.07581c0.36391-0.03184 0.60196-0.05914 0.7172-0.07885l-0.28051 1.586c-0.55457-0.01122-1.109-0.02688-1.6634-0.047-0.56991-0.02235-1.1401-0.03751-1.7104-0.04549-0.6429-0.01213-1.3055-0.02123-1.9909-0.03184v10.694c0 0.6429 0.06823 1.1675 0.20318 1.5709 0.14405 0.39423 0.326 0.70507 0.54434 0.93251 0.22744 0.22744 0.48218 0.38362 0.76117 0.46701 0.28961 0.08339 0.58528 0.12433 0.8855 0.12433zm21.845-9.7481c-0.41394-0.01061-0.93251-0.01516-1.5542-0.01516l-2.0364-0.03184c-0.7263-0.01061-1.4875-0.01516-2.2865-0.01516-0.77225-0.01016-1.5446-0.01524-2.3169-0.01516-1.3163-0.01929-2.6329-0.0041-3.9484 0.04549v4.6186c0 0.87944 0.01061 1.6527 0.03032 2.3154 0.03184 0.65351 0.06217 1.2191 0.09401 1.6952 0.04094 0.47763 0.08794 0.87641 0.1395 1.1979 0.06217 0.32145 0.12434 0.59135 0.1865 0.80817v0.06065h-3.73v-0.06065c0.06065-0.21834 0.11827-0.48672 0.16982-0.80817 0.06217-0.32145 0.11372-0.72023 0.15618-1.1979 0.04094-0.47611 0.07278-1.0417 0.09249-1.6952 0.02123-0.66261 0.03033-1.4344 0.03033-2.3154v-10.123c0-0.87944-0.0091-1.6482-0.03033-2.3002-0.01522-0.57086-0.04606-1.1412-0.09249-1.7104-0.03113-0.40676-0.08326-0.81164-0.15618-1.213-0.04151-0.27246-0.09872-0.5423-0.17134-0.80817v-0.06217h3.7316v0.06065c-0.07362 0.26713-0.13584 0.53727-0.1865 0.80969-0.06124 0.40251-0.10778 0.80712-0.1395 1.213-0.03032 0.47611-0.06217 1.0462-0.09249 1.7104-0.02123 0.652-0.03184 1.4192-0.03184 2.3002v3.9802c0.53828 0.02123 1.1509 0.03639 1.8347 0.047h2.1455l4.5094-0.06065c0.72478-0.02274 1.398-0.04246 2.0212-0.06368 0.54396-0.01729 1.0878-0.038 1.6315-0.06217v-3.8407c0-0.87944-0.01516-1.6482-0.047-2.3002-0.01516-0.57086-0.04594-1.1412-0.09249-1.7104-0.02183-0.4068-0.06838-0.81189-0.1395-1.213-0.0414-0.27249-0.09856-0.54234-0.17134-0.80817v-0.06217h3.7316v0.06065c-0.07369 0.26713-0.13586 0.53727-0.1865 0.80969-0.06126 0.40251-0.10781 0.80712-0.1395 1.213-0.04246 0.47611-0.07278 1.0462-0.09401 1.7104-0.02123 0.652-0.03184 1.4192-0.03184 2.3002v10.123c0 0.87944 0.01061 1.6527 0.03184 2.3154 0.02123 0.65351 0.05155 1.2191 0.09401 1.6952 0.04094 0.47763 0.08794 0.87641 0.1395 1.1979 0.06217 0.32145 0.12433 0.59135 0.1865 0.80817v0.06065h-3.7316v-0.06065c0.07278-0.26583 0.12994-0.53568 0.17134-0.80817 0.06217-0.32145 0.10766-0.72023 0.1395-1.1979 0.04094-0.47611 0.07278-1.0417 0.09249-1.6952 0.03381-0.77131 0.04958-1.5433 0.047-2.3154zm14.879 10.944c-1.1014 0.0077-2.1957-0.17591-3.2342-0.54283-0.9743-0.34425-1.868-0.88397-2.6262-1.586-0.76584-0.73243-1.3697-1.6172-1.7725-2.5974-0.42607-1.0356-0.63835-2.2183-0.63835-3.545 0-1.1706 0.19712-2.2532 0.59135-3.2494 0.3703-0.96744 0.92432-1.8541 1.6315-2.611 0.68655-0.7304 1.5111-1.3174 2.426-1.727 0.95001-0.41817 1.9779-0.63006 3.0159-0.62167 1.0174-0.0099 2.0267 0.18081 2.9704 0.56102 0.89674 0.35138 1.7038 0.89839 2.3624 1.6012 0.67474 0.69445 1.2024 1.5587 1.586 2.5959 0.39423 1.0265 0.60651 2.1986 0.63835 3.5132-2.3889-0.04165-4.7782-0.06186-7.1674-0.06065-0.90219 0-1.7831 0.0045-2.6429 0.01516-0.85063 0.0091-1.6179 0.02578-2.3017 0.04549 0.06217 1.0781 0.22744 2.053 0.49734 2.9234 0.28051 0.87034 0.65807 1.6163 1.1357 2.2395 0.47079 0.59826 1.0711 1.082 1.7558 1.4147 0.73548 0.34048 1.5384 0.51049 2.3487 0.49734 0.57077 0.0039 1.1398-0.06387 1.6937-0.20166 0.53979-0.14556 1.0265-0.34268 1.4617-0.59135s0.82485-0.53828 1.166-0.87034c0.34268-0.34268 0.63229-0.70962 0.87034-1.1038l0.18651 0.09249-1.1493 2.7672c-0.63975 0.32083-1.3123 0.57147-2.006 0.74752-0.77785 0.19712-1.7104 0.29416-2.799 0.29416zm-2.0682-9.4828h3.1099c1.0477-0.01061 1.9954-0.03033 2.846-0.06368-0.0772-0.82717-0.25488-1.6419-0.52918-2.426-0.22795-0.65719-0.56414-1.2717-0.99467-1.818-0.38709-0.48381-0.87573-0.87669-1.4314-1.1509-0.56669-0.27315-1.189-0.41121-1.818-0.40333-0.57928-0.0052-1.1508 0.1334-1.6634 0.40333-0.51623 0.27445-0.9632 0.66283-1.307 1.1357-0.4021 0.55606-0.70666 1.1765-0.90067 1.8347-0.24277 0.79733-0.3789 1.6233-0.40484 2.4564 0.46701 0.02123 0.95828 0.03032 1.4769 0.03032h1.6164zm12.455-7.9604c0-0.88096-0.0152-1.6482-0.047-2.3017-0.0159-0.57083-0.0467-1.1411-0.0925-1.7104-0.0227-0.40177-0.0699-0.80179-0.14102-1.1979-0.0406-0.27262-0.0978-0.54252-0.17134-0.80817v-0.06065h3.5921v0.06065c-0.0722 0.26651-0.12934 0.53682-0.17134 0.80969-0.0516 0.31993-0.0986 0.72023-0.1395 1.1979-0.0409 0.47611-0.0728 1.0462-0.0925 1.7088-0.0212 0.652-0.0318 1.4208-0.0318 2.3017v11.084c0 0.88247 0.0106 1.6527 0.0318 2.3169 0.0197 0.65351 0.0515 1.2191 0.0925 1.6952 0.0409 0.47763 0.0879 0.87641 0.1395 1.1979 0.0531 0.32145 0.10917 0.59135 0.17134 0.80817v0.06065h-3.5921v-0.06065c0.0735-0.26567 0.13071-0.53556 0.17134-0.80817 0.0622-0.32145 0.10917-0.72023 0.14102-1.1979 0.0409-0.47611 0.0713-1.0417 0.0925-1.6952 0.0338-0.77131 0.0496-1.5433 0.047-2.3154zm14.678 0.96284c0.42456 0 0.84911 0.03639 1.2737 0.10917 0.42607 0.07278 0.84002 0.17589 1.2449 0.31084 0.40333 0.13495 0.78695 0.30022 1.1493 0.49734 0.3639 0.19712 0.6899 0.42001 0.97951 0.66868v-2.5489c0-0.88096-9e-3 -1.6482-0.0303-2.3017-0.0155-0.57088-0.0469-1.1412-0.094-1.7104-0.0322-0.40082-0.0787-0.80037-0.1395-1.1979-0.0414-0.27249-0.0986-0.54234-0.17134-0.80817v-0.06065h3.5921v0.06065c-0.0737 0.26713-0.13586 0.53727-0.18651 0.80969-0.0515 0.31993-0.0985 0.72023-0.13949 1.1979-0.0318 0.47611-0.0622 1.0462-0.094 1.7088-0.0212 0.652-0.0303 1.4208-0.0303 2.3017v11.084c0 0.88247 9e-3 1.6527 0.0303 2.3169 0.0318 0.65351 0.0622 1.2191 0.094 1.6952 0.0409 0.47763 0.0879 0.87641 0.13949 1.1979 0.0622 0.32145 0.12434 0.59135 0.18651 0.80817v0.06065h-3.4359v-0.06065c0.0303-0.0834 0.0561-0.20166 0.0773-0.35784l0.0773-0.60651c-0.62595 0.37675-1.2935 0.67951-1.9894 0.90218-0.79756 0.2699-1.7255 0.40333-2.7839 0.40333-1.2327 0-2.3518-0.19105-3.357-0.57467-0.96809-0.35964-1.8484-0.92153-2.5822-1.6482-0.72025-0.74099-1.2762-1.6255-1.6315-2.5959-0.38362-1.0265-0.57618-2.1774-0.57618-3.4526 0-1.1706 0.20773-2.2532 0.62318-3.2494 0.39719-0.97936 0.98943-1.8677 1.7407-2.611 0.76231-0.74676 1.666-1.3339 2.658-1.727 1.0743-0.42348 2.2205-0.63461 3.3752-0.62167zm4.6474 4.3214c-0.41394-1.0872-1.0098-1.8908-1.7877-2.4078-0.76562-0.51814-1.6715-0.78957-2.5959-0.77785-0.80817 0-1.5557 0.14556-2.2395 0.43517-0.67095 0.27076-1.2714 0.69077-1.7558 1.2282-0.51235 0.58037-0.90363 1.2572-1.1508 1.9909-0.2699 0.77633-0.40485 1.6634-0.40485 2.658 0 1.119 0.12434 2.1607 0.373 3.125 0.24867 0.96435 0.61258 1.8044 1.0887 2.5185 0.48672 0.70507 1.0887 1.2585 1.8044 1.6634 0.71416 0.39423 1.539 0.59135 2.4715 0.59135 0.48673 0 0.94313-0.05762 1.3677-0.17134 0.40241-0.1052 0.79309-0.251 1.166-0.43517 0.35329-0.17589 0.66413-0.36846 0.93402-0.57618 0.24176-0.19102 0.46511-0.40423 0.66717-0.63684 0.0212-0.44578 0.0364-0.95374 0.047-1.5239s0.0152-1.1979 0.0152-1.8802v-5.7998zm14.476 12.159c-1.1509 0-2.2289-0.18195-3.2342-0.54283-0.97476-0.34422-1.8689-0.88393-2.6277-1.586-0.76536-0.73284-1.3691-1.6175-1.7725-2.5974-0.42455-1.0356-0.63683-2.2183-0.63683-3.545 0-1.1706 0.19711-2.2532 0.58983-3.2494 0.37082-0.96753 0.92535-1.8542 1.633-2.611 1.4033-1.5126 3.3786-2.3646 5.4419-2.3472 1.0166-0.01016 2.0253 0.17939 2.9689 0.55799 0.9128 0.36391 1.7013 0.89764 2.3639 1.6027 0.67322 0.69445 1.2024 1.5587 1.586 2.5959 0.39423 1.0265 0.60651 2.1986 0.63683 3.5132-2.3889-0.04167-4.7782-0.06189-7.1674-0.06065-0.90066 0-1.7816 0.0045-2.6429 0.01516-0.84912 0.0091-1.6164 0.02578-2.3002 0.04549 0.0622 1.0781 0.22744 2.053 0.49734 2.9234 0.27899 0.87034 0.65806 1.6163 1.1342 2.2395 0.48824 0.61106 1.0735 1.0826 1.7574 1.4147 0.69446 0.33055 1.4768 0.49734 2.3472 0.49734 0.60196 0 1.166-0.06672 1.6952-0.20166 0.53828-0.14556 1.0265-0.34268 1.4617-0.59135s0.82334-0.53828 1.166-0.87034c0.34117-0.34268 0.63229-0.70962 0.87035-1.1038l0.1865 0.09249-1.1508 2.7672c-0.55951 0.29112-1.2282 0.53979-2.0045 0.74752-0.77785 0.19712-1.7104 0.29416-2.799 0.29416zm-2.0682-9.4828h3.1099c1.0462-0.01061 1.9954-0.03033 2.8445-0.06368-0.076-0.82722-0.2532-1.642-0.52766-2.426-0.22784-0.65755-0.5646-1.2721-0.9962-1.818-0.38654-0.48374-0.87468-0.87662-1.4298-1.1509-0.56718-0.27327-1.19-0.41133-1.8195-0.40333-0.60045 0-1.1554 0.13495-1.6634 0.40333-0.51568 0.27464-0.96212 0.663-1.3055 1.1357-0.40202 0.55632-0.70705 1.1766-0.90218 1.8347-0.24152 0.79757-0.37713 1.6234-0.40333 2.4564 0.46549 0.02123 0.95828 0.03032 1.4768 0.03032h1.6164zm23.058-1.2752c0-1.3692-0.27596-2.3745-0.82486-3.0174-0.54889-0.64138-1.2843-0.96284-2.2077-0.96284-0.33207 0-0.70507 0.07278-1.119 0.21683-0.44166 0.14674-0.8686 0.33458-1.2752 0.56102-0.45318 0.23914-0.88939 0.50917-1.3055 0.80818-0.42934 0.30615-0.8395 0.63833-1.2282 0.99468l-0.0319 2.0364v3.7634c0 0.87944 0.0106 1.6527 0.0319 2.3154 0.0197 0.65351 0.0515 1.2191 0.0925 1.6952 0.0409 0.47763 0.0879 0.87641 0.1395 1.1979 0.0531 0.32145 0.10917 0.59135 0.17133 0.80817v0.06065h-3.5905v-0.06065c0.0622-0.21834 0.11827-0.48672 0.16982-0.80817 0.0622-0.32145 0.10917-0.72023 0.14101-1.1979 0.0409-0.47611 0.0728-1.0417 0.0925-1.6952 0.0338-0.77131 0.0496-1.5433 0.047-2.3154v-3.7634c0-0.87944-0.0152-1.6482-0.047-2.3002-0.0152-0.57086-0.0459-1.1412-0.0925-1.7104-0.0227-0.40177-0.0699-0.80179-0.14101-1.1979-0.0409-0.27245-0.0977-0.54229-0.16982-0.80817v-0.06217h3.5905v0.06065c-0.0819 0.2608-0.15011 0.59135-0.20166 0.99619-0.0523 0.51802-0.0989 1.0366-0.1395 1.5557 0.42456-0.35329 0.88096-0.70507 1.3677-1.0584 0.48967-0.34782 1.004-0.65948 1.539-0.93251 0.5164-0.27429 1.0582-0.49773 1.6179-0.66716 0.52164-0.17219 1.067-0.26172 1.6164-0.26535 0.80817 0 1.492 0.1395 2.0515 0.42001 0.57012 0.279 1.0326 0.64745 1.3844 1.1038 0.36239 0.45488 0.62168 0.97951 0.77785 1.5693 0.16528 0.58073 0.24867 1.1721 0.24867 1.774v5.2857c0 0.87944 0.0106 1.6527 0.0303 2.3154 0.0212 0.65351 0.0515 1.2191 0.094 1.6952 0.0409 0.47763 0.0879 0.87641 0.13949 1.1979 0.0516 0.32145 0.10918 0.59135 0.17134 0.80817v0.06065h-3.592v-0.06065c0.0728-0.26583 0.12994-0.53568 0.17134-0.80817 0.0622-0.32145 0.10917-0.72023 0.13949-1.1979 0.0425-0.47611 0.0728-1.0417 0.094-1.6952 0.0303-0.66261 0.047-1.4344 0.047-2.3154z" fill="#003359" stroke-width="1.5163"/><path d="m53.964 25.464-16.858 0.18939c18.026 22.27 15.872 29.135 47.692 25.173-7.0567-0.77053-23.853-3.1703-30.834-25.363zm64.87-0.28019 16.858 0.0441c-17.787 22.433-15.571 29.272-47.425 25.58 7.0463-0.82501 23.816-3.3701 30.567-25.619zm-61.279-18.832 17.413 8.2164c-3.4142 10.678-2.3738 20.016 2.1533 24.945-0.47996 3.1132-1.1208 7.2616 3.2611 9.677-17.953-4.7866-25.884-16.409-22.825-42.838zm57.483-0.24387-17.32 8.3616c3.5283 10.655 2.5866 19.997-1.8939 24.958 0.51109 3.1158 1.1934 7.259-3.1547 9.7133 17.901-4.9449 25.71-16.632 22.369-43.033zm-28.577 19.05c3.1132 5.1732 6.0838 6.6364 8.9687 13.283 7.0022-17.151-2.0418-27.495-9.1659-38.441-7.0022 11.008-15.935 21.422-8.756 38.526 2.8123-6.6831 5.7725-8.1723 8.8286-13.369" fill="#003359" stroke-width="2.5944"/></svg>
